<svg width="64" height="64" viewBox="0 0 64 64" fill="none" xmlns="http://www.w3.org/2000/svg">
    <path
        d="M0.527479 14.2804C0.283805 13.4875 0.73031 12.6468 1.52478 12.4027L38.5743 1.01615C39.3688 0.771984 40.2104 1.2168 40.454 2.00967L53.7616 45.31C54.0053 46.1028 53.5588 46.9435 52.7643 47.1877L15.7148 58.5742C14.9203 58.8184 14.0787 58.3736 13.8351 57.5807L0.527479 14.2804Z"
        fill="white" />
    <path
        d="M40.7807 14.8137H23.6466C23.2562 14.8142 22.8818 14.9705 22.6058 15.2484C22.3297 15.5263 22.1743 15.9031 22.1739 16.2961V54.6237L21.9775 54.684L17.7742 55.9796C17.575 56.0407 17.3599 56.0198 17.176 55.9214C16.9921 55.823 16.8545 55.6552 16.7934 55.4548L4.29062 14.3503C4.22978 14.1498 4.25051 13.9332 4.34828 13.748C4.44604 13.5629 4.61283 13.4245 4.81198 13.3631L11.2892 11.3669L30.0669 5.58189L36.5441 3.58571C36.6426 3.55518 36.7462 3.54451 36.8489 3.55431C36.9516 3.56412 37.0513 3.5942 37.1424 3.64285C37.2335 3.6915 37.3142 3.75775 37.3799 3.83782C37.4455 3.91788 37.4948 4.01019 37.525 4.10946L40.7208 14.6161L40.7807 14.8137Z"
        fill="#F2F2F2" />
    <path
        d="M44.5179 14.6161L40.6661 1.95319C40.602 1.7422 40.4973 1.54599 40.3578 1.37577C40.2184 1.20555 40.047 1.06465 39.8534 0.961135C39.6598 0.857616 39.4479 0.793501 39.2297 0.772457C39.0114 0.751414 38.7913 0.773853 38.5817 0.838491L29.4751 3.64402L10.6984 9.42998L1.59186 12.2365C1.16881 12.3672 0.814592 12.6616 0.606947 13.0549C0.399301 13.4482 0.355194 13.9084 0.48431 14.3345L13.6488 57.6111C13.7537 57.955 13.9654 58.256 14.2527 58.47C14.54 58.6839 14.8879 58.7996 15.2453 58.7999C15.4108 58.8 15.5752 58.775 15.7333 58.7258L21.9758 56.8027L22.1722 56.7415V56.5349L21.9758 56.5952L15.6754 58.5371C15.302 58.6516 14.8986 58.6124 14.5539 58.4281C14.2091 58.2438 13.9511 57.9293 13.8364 57.5538L0.672863 14.2762C0.616024 14.0901 0.596213 13.8945 0.614566 13.7007C0.63292 13.5069 0.689074 13.3187 0.779818 13.1467C0.870561 12.9748 0.994112 12.8226 1.14339 12.6988C1.29267 12.575 1.46474 12.482 1.64977 12.4252L10.7563 9.61873L29.5331 3.83375L38.6396 1.02724C38.78 0.984135 38.9259 0.962156 39.0726 0.962019C39.3875 0.96273 39.6939 1.06491 39.9469 1.25358C40.1999 1.44226 40.3862 1.70752 40.4786 2.01051L44.3127 14.6161L44.3736 14.8137H44.5778L44.5179 14.6161Z"
        fill="#FF0000" />
    <path
        d="M12.457 13.3954C12.2677 13.3952 12.0835 13.3341 11.9314 13.2208C11.7792 13.1076 11.6671 12.9483 11.6115 12.7662L10.3468 8.60863C10.3129 8.49695 10.3011 8.37963 10.3121 8.26336C10.3232 8.14709 10.3569 8.03416 10.4114 7.93101C10.4658 7.82787 10.5399 7.73652 10.6294 7.6622C10.719 7.58788 10.8221 7.53204 10.9331 7.49786L28.2075 2.17499C28.4316 2.10617 28.6737 2.12964 28.8806 2.24026C29.0875 2.35088 29.2424 2.53961 29.3112 2.76502L30.5758 6.92264C30.6442 7.14819 30.6208 7.39181 30.5109 7.60006C30.401 7.8083 30.2135 7.96417 29.9896 8.03346L12.7151 13.3563C12.6315 13.3822 12.5445 13.3953 12.457 13.3954Z"
        fill="#FF0000" />
    <path
        d="M19.0818 5.20641C20.1664 5.20641 21.0455 4.32153 21.0455 3.22999C21.0455 2.13844 20.1664 1.25357 19.0818 1.25357C17.9973 1.25357 17.1182 2.13844 17.1182 3.22999C17.1182 4.32153 17.9973 5.20641 19.0818 5.20641Z"
        fill="#FF0000" />
    <path
        d="M19.0809 4.48157C19.7676 4.48157 20.3243 3.92125 20.3243 3.23004C20.3243 2.53884 19.7676 1.97852 19.0809 1.97852C18.3941 1.97852 17.8374 2.53884 17.8374 3.23004C17.8374 3.92125 18.3941 4.48157 19.0809 4.48157Z"
        fill="white" />
    <path
        d="M22.1675 16.3086C22.1675 15.4802 22.8391 14.8086 23.6675 14.8086H62.3008C63.1292 14.8086 63.8008 15.4802 63.8008 16.3086V61.5508C63.8008 62.3792 63.1292 63.0508 62.3008 63.0508H23.6675C22.8391 63.0508 22.1675 62.3792 22.1675 61.5508V16.3086Z"
        fill="white" />
    <path
        d="M59.5813 58.2949H26.3951C26.1738 58.2946 25.9617 58.206 25.8053 58.0486C25.6488 57.8911 25.5608 57.6776 25.5605 57.4549V17.4324C25.5608 17.2097 25.6488 16.9962 25.8053 16.8387C25.9617 16.6813 26.1738 16.5927 26.3951 16.5924H59.5813C59.8026 16.5927 60.0147 16.6813 60.1712 16.8387C60.3276 16.9962 60.4156 17.2097 60.4159 17.4324V57.4549C60.4156 57.6776 60.3276 57.8911 60.1711 58.0485C60.0147 58.206 59.8026 58.2946 59.5813 58.2949Z"
        fill="#E6E6E6" />
    <path
        d="M44.3139 14.6161H23.6462C23.2037 14.6167 22.7795 14.7939 22.4666 15.1088C22.1537 15.4237 21.9777 15.8507 21.9771 16.296V56.5952L22.1734 56.5349V16.296C22.1739 15.903 22.3292 15.5263 22.6053 15.2484C22.8814 14.9705 23.2557 14.8142 23.6462 14.8137H44.3748L44.3139 14.6161ZM62.3307 14.6161H23.6462C23.2037 14.6167 22.7795 14.7939 22.4666 15.1088C22.1537 15.4237 21.9777 15.8507 21.9771 16.296V61.556C21.9777 62.0013 22.1537 62.4283 22.4666 62.7432C22.7795 63.0581 23.2037 63.2353 23.6462 63.2359H62.3307C62.7732 63.2353 63.1974 63.0581 63.5102 62.7432C63.8231 62.4283 63.9992 62.0013 63.9998 61.556V16.296C63.9992 15.8507 63.8231 15.4237 63.5102 15.1088C63.1974 14.7939 62.7732 14.6167 62.3307 14.6161ZM63.8034 61.556C63.803 61.949 63.6477 62.3257 63.3716 62.6036C63.0955 62.8815 62.7211 63.0378 62.3307 63.0383H23.6462C23.2557 63.0378 22.8814 62.8815 22.6053 62.6036C22.3292 62.3257 22.1739 61.949 22.1734 61.556V16.296C22.1739 15.903 22.3292 15.5263 22.6053 15.2484C22.8814 14.9705 23.2557 14.8142 23.6462 14.8137H62.3307C62.7211 14.8142 63.0955 14.9705 63.3716 15.2484C63.6477 15.5263 63.803 15.903 63.8034 16.296V61.556Z"
        fill="#FF0000" />
    <path
        d="M52.0213 18.9643H33.9554C33.7212 18.964 33.4965 18.8702 33.3309 18.7035C33.1652 18.5368 33.072 18.3107 33.0718 18.0749V13.7268C33.072 13.491 33.1652 13.2649 33.3309 13.0982C33.4965 12.9315 33.7212 12.8377 33.9554 12.8374H52.0213C52.2556 12.8377 52.4802 12.9315 52.6458 13.0982C52.8115 13.2649 52.9047 13.491 52.905 13.7268V18.0749C52.9047 18.3107 52.8115 18.5368 52.6458 18.7035C52.4802 18.8702 52.2556 18.964 52.0213 18.9643Z"
        fill="#FF0000" />
    <path
        d="M42.9866 13.1338C44.0711 13.1338 44.9503 12.249 44.9503 11.1574C44.9503 10.0659 44.0711 9.181 42.9866 9.181C41.9021 9.181 41.0229 10.0659 41.0229 11.1574C41.0229 12.249 41.9021 13.1338 42.9866 13.1338Z"
        fill="#FF0000" />
    <path
        d="M42.9876 12.3613C43.6481 12.3613 44.1836 11.8223 44.1836 11.1574C44.1836 10.4926 43.6481 9.95361 42.9876 9.95361C42.327 9.95361 41.7915 10.4926 41.7915 11.1574C41.7915 11.8223 42.327 12.3613 42.9876 12.3613Z"
        fill="white" />
</svg>